<svg width="33" height="32" viewBox="0 0 33 32" fill="none" xmlns="http://www.w3.org/2000/svg">
<path fill-rule="evenodd" clip-rule="evenodd" d="M31.2619 10.7918C31.2622 13.4675 30.1442 16.0215 28.1781 17.8363C26.212 19.6511 23.5769 20.5616 20.9098 20.3476C20.5286 15.6605 16.8079 11.9398 12.1209 11.5586C11.8456 8.0571 13.5075 4.68546 16.4522 2.77109C19.397 0.856715 23.1529 0.706246 26.2414 2.37892C29.3299 4.05159 31.2561 7.27948 31.2619 10.7918V10.7918Z" stroke="black" stroke-width="2" stroke-linecap="round" stroke-linejoin="round"/>
<path fill-rule="evenodd" clip-rule="evenodd" d="M20.9393 21.1146C20.9393 26.4083 16.6478 30.6998 11.354 30.6998C6.06023 30.6998 1.76877 26.4083 1.76877 21.1146C1.76877 15.8208 6.06023 11.5293 11.354 11.5293C16.6478 11.5293 20.9393 15.8208 20.9393 21.1146V21.1146Z" stroke="black" stroke-width="2" stroke-linecap="round" stroke-linejoin="round"/>
<path fill-rule="evenodd" clip-rule="evenodd" d="M10.0563 19.8167L11.354 17.4277L12.6517 19.8167L15.0407 21.1144L12.6517 22.4121L11.354 24.801L10.0563 22.4121L7.66739 21.1144L10.0563 19.8167Z" stroke="black" stroke-width="2" stroke-linecap="round" stroke-linejoin="round"/>
</svg>
